<svg xmlns="http://www.w3.org/2000/svg" width="35.097" height="35" viewBox="0 0 35.097 35">
  <path id="Path_12" data-name="Path 12" d="M3002.291,594.9h-29.847a2.6,2.6,0,0,0-2.625,2.528v29.944a2.6,2.6,0,0,0,2.625,2.528h29.847a2.6,2.6,0,0,0,2.625-2.528V597.429A2.6,2.6,0,0,0,3002.291,594.9Zm-22.069,29.847h-5.153V608.026h5.153Zm-2.528-18.958a3.029,3.029,0,0,1-3.014-3.014,2.968,2.968,0,0,1,3.014-3.014,3.014,3.014,0,1,1,0,6.028Zm22.07,18.861h-5.153v-8.167c0-1.944,0-4.472-2.722-4.472s-3.111,2.139-3.111,4.278v8.264h-5.153V608.026h4.861v2.236h.1a5.441,5.441,0,0,1,4.958-2.722c5.25,0,6.222,3.5,6.222,7.972Z" transform="translate(-2969.819 -594.901)" fill="#fff"/>
</svg>
