<?xml version="1.0" encoding="utf-8"?>
<!-- Generator: Adobe Illustrator 26.0.0, SVG Export Plug-In . SVG Version: 6.00 Build 0)  -->
<svg version="1.1" id="Calque_1" xmlns="http://www.w3.org/2000/svg" xmlns:xlink="http://www.w3.org/1999/xlink" x="0px" y="0px"
	 viewBox="0 0 401.4 56.7" style="enable-background:new 0 0 401.4 56.7;" xml:space="preserve">
<style type="text/css">
	.st0{fill:#FFFFFF;}
</style>
<g>
	<path class="st0" d="M6,27.5h23.3c10.1,0,13-4.3,13-10.6c0-8.1-4.9-10.4-11.8-10.4H6V27.5z M0,1.4h31.3c9,0,17.5,4.2,17.5,15.6
		c0,10.2-7.2,15.7-20.2,15.7H6v22.7H0V1.4z"/>
</g>
<polygon class="st0" points="85.8,32.7 59.7,1.4 67.5,1.4 88.8,27.1 110.2,1.4 118,1.4 91.8,32.7 91.8,55.3 85.8,55.3 "/>
<polygon class="st0" points="149.3,6.5 126.5,6.5 126.5,1.4 178.1,1.4 178.1,6.5 155.3,6.5 155.3,55.3 149.3,55.3 "/>
<polygon class="st0" points="193.3,1.4 199.3,1.4 199.3,24.2 241.3,24.2 241.3,1.4 247.3,1.4 247.3,55.3 241.3,55.3 241.3,29.3 
	199.3,29.3 199.3,55.3 193.3,55.3 "/>
<g>
	<path class="st0" d="M297.3,51.6c12.8,0,25.1-7,25.1-23.2c0-16.3-12.3-23.2-25.1-23.2s-25.1,7-25.1,23.2
		C272.3,44.6,284.5,51.6,297.3,51.6 M297.3,0c16.5,0,31.6,9.3,31.6,28.3c0,19-15.1,28.3-31.6,28.3c-16.5,0-31.6-9.3-31.6-28.3
		C265.7,9.3,280.8,0,297.3,0"/>
</g>
<polygon class="st0" points="395.3,1.4 395.3,47.5 395.2,47.5 354.6,1.4 347.3,1.4 347.3,55.3 353.3,55.3 353.3,9.2 353.5,9.2 
	394.4,55.3 401.4,55.3 401.4,1.4 "/>
</svg>
