<svg id="Layer_1" data-name="Layer 1" xmlns="http://www.w3.org/2000/svg" viewBox="0 0 44.84 8.45"><defs><style>.cls-1{fill:#fff;}</style></defs><path class="cls-1" d="M0,.14H2.72a10.85,10.85,0,0,1,1.44.1A2.23,2.23,0,0,1,5.34.76a2.06,2.06,0,0,1,.59.8,2.61,2.61,0,0,1,.21,1.06,2.72,2.72,0,0,1-.21,1.07,2.06,2.06,0,0,1-.59.82A2.31,2.31,0,0,1,4.16,5a10.91,10.91,0,0,1-1.44.09H1.44V8.3H0ZM1.44,3.83H2.93a4.25,4.25,0,0,0,.69,0,1.34,1.34,0,0,0,.45-.12,1,1,0,0,0,.43-.42,1.34,1.34,0,0,0,.16-.63A1.28,1.28,0,0,0,4.5,2a1,1,0,0,0-.43-.42,2.07,2.07,0,0,0-.45-.12,6.21,6.21,0,0,0-.69,0H1.44Z"/><path class="cls-1" d="M10.72,8.3H9.28V5L6.31.14H8l2.09,3.5L12.19.14h1.66L10.72,5Z"/><path class="cls-1" d="M13.94.14h6.21V1.43H17.77V8.3H16.33V1.43H13.94Z"/><path class="cls-1" d="M22.72,4.73V8.3H21.28V.14h1.44v3.3h3.64V.14H27.8V8.3H26.36V4.73Z"/><path class="cls-1" d="M29.22,4.22a5.2,5.2,0,0,1,.27-1.71,4,4,0,0,1,.77-1.33A3.68,3.68,0,0,1,31.48.31a4.31,4.31,0,0,1,3.21,0,3.54,3.54,0,0,1,1.21.87,3.83,3.83,0,0,1,.78,1.33A5.2,5.2,0,0,1,37,4.22a5.69,5.69,0,0,1-.25,1.71A3.82,3.82,0,0,1,36,7.27a3.44,3.44,0,0,1-1.21.87,4.55,4.55,0,0,1-3.3,0,3.44,3.44,0,0,1-1.21-.87,3.82,3.82,0,0,1-.75-1.34A5.38,5.38,0,0,1,29.22,4.22Zm1.57,0A4.12,4.12,0,0,0,31,5.43a2.64,2.64,0,0,0,.45.92,2,2,0,0,0,.72.59,2.26,2.26,0,0,0,1,.2,2.3,2.3,0,0,0,1-.2,2.15,2.15,0,0,0,.72-.59,2.64,2.64,0,0,0,.45-.92,4.62,4.62,0,0,0,0-2.41,2.53,2.53,0,0,0-.46-.93,2.07,2.07,0,0,0-.72-.6,2.3,2.3,0,0,0-1.92,0,2.07,2.07,0,0,0-.72.6A2.52,2.52,0,0,0,31,3,4.1,4.1,0,0,0,30.79,4.22Z"/><path class="cls-1" d="M41.92,3.46l.49.74.39.61.35.56c.1.18.21.37.33.56h0q0-.18,0-.54c0-.23,0-.49,0-.78s0-.59,0-.89V.14h1.42V8.3H43.5L41.18,4.76c-.2-.31-.38-.57-.51-.79s-.26-.41-.36-.57L40,2.92l-.28-.48h0q0,.65,0,1.44c0,.53,0,1.1,0,1.7V8.3H38.36V.14h1.35Z"/></svg>