<?xml version="1.0" standalone="no"?>
<!DOCTYPE svg PUBLIC "-//W3C//DTD SVG 20010904//EN"
 "http://www.w3.org/TR/2001/REC-SVG-20010904/DTD/svg10.dtd">
<svg version="1.0" xmlns="http://www.w3.org/2000/svg"
 width="700.000000pt" height="700.000000pt" viewBox="0 0 700.000000 700.000000"
 preserveAspectRatio="xMidYMid meet">
<metadata>
Created by potrace 1.14, written by Peter Selinger 2001-2017
</metadata>
<g transform="translate(0.000000,700.000000) scale(0.100000,-0.100000)"
fill="#000000" stroke="none">
<path d="M0 3500 l0 -3500 3500 0 3500 0 0 1408 -1 1407 -37 -110 c-74 -214
-188 -429 -329 -623 -68 -94 -256 -295 -343 -368 -124 -103 -250 -191 -355
-249 -38 -21 -83 -46 -100 -55 -149 -82 -461 -185 -654 -216 -18 -3 -43 -7
-54 -10 -100 -19 -451 -26 -577 -11 -83 9 -129 16 -160 23 -14 3 -38 8 -55 11
-75 11 -329 85 -390 113 -11 5 -45 19 -75 31 -244 99 -537 297 -742 501 -205
203 -400 506 -501 778 -33 90 -80 245 -91 300 -3 14 -7 36 -11 50 -48 216 -55
634 -15 888 58 363 237 760 476 1053 116 141 274 291 418 396 39 29 76 56 81
61 16 12 174 106 235 139 251 134 601 235 895 258 83 6 316 7 375 0 142 -15
200 -22 240 -31 14 -3 36 -8 50 -10 69 -13 271 -71 325 -93 11 -5 56 -23 100
-42 177 -73 381 -194 542 -321 43 -34 132 -116 198 -182 245 -246 407 -499
539 -841 14 -36 15 87 15 1353 l1 1392 -3500 0 -3500 0 0 -3500z"/>
</g>
</svg>
