<svg xmlns="http://www.w3.org/2000/svg" width="43.074" height="35" viewBox="0 0 43.074 35">
  <path id="Logo" d="M-208.29-90.072c.026.379.026.76.026,1.142,0,11.678-8.891,25.145-25.145,25.145v-.007a25.019,25.019,0,0,1-13.546-3.963,17.983,17.983,0,0,0,2.1.128,17.732,17.732,0,0,0,10.975-3.791,8.848,8.848,0,0,1-8.257-6.137,8.824,8.824,0,0,0,3.991-.152,8.841,8.841,0,0,1-7.09-8.663v-.112a8.773,8.773,0,0,0,4.011,1.106,8.844,8.844,0,0,1-2.736-11.8,25.09,25.09,0,0,0,18.214,9.233,8.846,8.846,0,0,1,2.557-8.444,8.846,8.846,0,0,1,12.5.384,17.708,17.708,0,0,0,5.612-2.145,8.867,8.867,0,0,1-3.885,4.888,17.637,17.637,0,0,0,5.076-1.39A17.984,17.984,0,0,1-208.29-90.072Z" transform="translate(246.955 98.784)" fill="#fff"/>
</svg>
